<?xml version="1.0" encoding="UTF-8"?>
<svg xmlns="http://www.w3.org/2000/svg" viewBox="0 0 62.76 55.21" role="img" aria-labelledby="title">
  <title>Startup State mark</title>
  <path fill="#a9d3a3" d="m32.79 54.6 10.92-18.92c.22-.39.22-.86 0-1.25-.22-.39-.63-.62-1.08-.62H32.32v.01h-.55l-.55-.01H20.91c-.45 0-.86.24-1.08.62-.22.39-.22.86 0 1.25L30.75 54.6c.21.37.6.6 1.02.62.42-.02.81-.25 1.02-.62Z"/>
  <path fill="#59b779" d="M44.9 32.16c.54 0 1.04-.29 1.3-.75l7.39-12.73c.22-.39.22-.86 0-1.25-.22-.39-.63-.62-1.08-.62H10.83c-.9 0-1.47.99-1.02 1.77l5.84 10.11c.22.39.63.62 1.08.62l18.07.02-1.19 2.13c-.18.32.04.71.41.71H44.9Z"/>
  <path fill="#009d4e" d="m22.04 14.22-1.13-1.88 34.96-.02c.45 0 .86-.24 1.08-.63l5.64-9.82c.22-.39.22-.86 0-1.24S61.96.01 61.51.01H1.25C.8.01.39.25.17.63s-.23.86 0 1.25L7.4 14.34c.29.5.82.81 1.4.81h12.71c.47 0 .76-.51.53-.92Z"/>
</svg>
